<svg width="34" height="34" viewBox="0 0 64 64" fill="none" xmlns="http://www.w3.org/2000/svg">
  <g clip-path="url(#clip0_71_17)">
    <path d="M16.06 14.251H3.22403C3.11803 14.251 3.03003 14.303 3.03003 14.365V21.705C3.03003 21.767 3.11803 21.819 3.22403 21.819H16.06C16.1059 21.821 16.1515 21.8106 16.192 21.789L16.198 21.785C16.198 21.785 16.202 21.785 16.202 21.783C16.236 21.765 16.256 21.737 16.256 21.705V14.364C16.256 14.303 16.168 14.251 16.06 14.251" fill="#25333A" />
    <path d="M63.1301 17.335H0.940094C0.424094 17.335 -0.00390625 17.589 -0.00390625 17.889V53.449C-0.00390625 53.749 0.424094 54.001 0.939094 54.001H63.1291C63.4071 54.001 63.6231 53.939 63.7741 53.854C63.7741 53.854 63.7871 53.846 63.7951 53.837C63.8081 53.837 63.8141 53.829 63.8191 53.816C63.9711 53.732 64.0741 53.607 64.0741 53.449V17.889C64.0721 17.589 63.6431 17.335 63.1291 17.335" fill="#405866" />
    <path d="M63.2701 23.392H10.2151C9.77711 23.392 9.41211 23.604 9.41211 23.853V53.541C9.41211 53.793 9.77811 54.001 10.2151 54.001H63.2721C63.5061 54.001 63.6901 53.952 63.8191 53.877L63.8361 53.863C63.8361 53.863 63.8551 53.855 63.8581 53.847C63.9891 53.775 64.0751 53.671 64.0751 53.539V23.851C64.0721 23.604 63.7051 23.392 63.2701 23.392Z" fill="#354A54" />
    <path d="M61.6799 20.468H48.8429C48.7389 20.468 48.6489 20.52 48.6489 20.582V27.922C48.6489 27.984 48.7389 28.036 48.8429 28.036H61.6799C61.7255 28.038 61.7708 28.0276 61.8109 28.006L61.8169 28.002C61.8169 28.002 61.8209 28.002 61.8209 28C61.8559 27.982 61.8759 27.954 61.8759 27.922V20.582C61.8739 20.521 61.7859 20.468 61.6799 20.468Z" fill="#56787F" />
    <path d="M45.27 35.668C45.27 42.854 39.448 48.668 32.27 48.668C25.092 48.668 19.27 42.853 19.27 35.668C19.27 28.486 25.093 22.671 32.27 22.671C39.447 22.671 45.27 28.486 45.27 35.668Z" fill="#D1D2D3" />
    <path d="M43.948 35.668C43.948 42.121 38.717 47.346 32.27 47.346C25.823 47.346 20.593 42.121 20.593 35.668C20.593 29.215 25.823 23.992 32.27 23.992C38.717 23.992 43.948 29.215 43.948 35.668" fill="#A7A8AC" />
    <path d="M42.666 35.668C42.666 41.412 38.01 46.063 32.27 46.063C26.533 46.063 21.876 41.414 21.876 35.668C21.876 29.925 26.532 25.274 32.27 25.274C38.01 25.274 42.666 29.925 42.666 35.668" fill="#1E75BB" />
    <path d="M41.38 35.668C41.38 40.698 37.302 44.783 32.267 44.783C27.237 44.783 23.156 40.702 23.156 35.668C23.156 30.638 27.235 26.558 32.267 26.558C37.297 26.558 41.38 30.637 41.38 35.668Z" fill="#57C6E9" />
    <path d="M27.4939 38.31C25.8789 34.847 25.8069 31.119 27.2659 28.037C26.0036 28.8652 24.9672 29.9946 24.2503 31.3233C23.5333 32.652 23.1582 34.1382 23.1589 35.648C23.1589 40.678 27.2379 44.761 32.2699 44.761C32.3599 44.761 32.4479 44.748 32.5379 44.746C30.4499 42.985 28.6889 40.871 27.4979 38.31" fill="#27A8E0" />
    <path d="M61.2401 19.873H49.285C49.184 19.873 49.1021 19.921 49.1021 19.979V26.816C49.1021 26.874 49.184 26.922 49.285 26.922H61.2401C61.2819 26.9238 61.3233 26.9141 61.3601 26.894L61.3671 26.89C61.3671 26.89 61.3721 26.89 61.3721 26.888C61.4031 26.872 61.4221 26.846 61.4221 26.816V19.979C61.4221 19.921 61.3401 19.873 61.2401 19.873" fill="#57C6E9" />
  </g>
  <defs>
    <clipPath id="clip0_71_17">
      <rect width="64" height="64" fill="white" />
    </clipPath>
  </defs>
</svg>