<svg width="33" height="31" viewBox="0 0 43 41" fill="none" xmlns="http://www.w3.org/2000/svg">
  <path d="M8.19678 7.81563C8.70076 7.33523 9.38421 7.06536 10.0968 7.06536C10.8095 7.06536 11.4929 7.33523 11.9969 7.81563L21.4999 16.8766L31.0029 7.81563C31.5098 7.34885 32.1886 7.09056 32.8933 7.0964C33.5979 7.10224 34.272 7.37173 34.7703 7.84684C35.2686 8.32195 35.5512 8.96466 35.5573 9.63654C35.5635 10.3084 35.2926 10.9557 34.803 11.439L25.3 20.5L34.803 29.561C35.2926 30.0443 35.5635 30.6916 35.5573 31.3635C35.5512 32.0353 35.2686 32.6781 34.7703 33.1532C34.272 33.6283 33.5979 33.8978 32.8933 33.9036C32.1886 33.9094 31.5098 33.6512 31.0029 33.1844L21.4999 24.1234L11.9969 33.1844C11.49 33.6512 10.8112 33.9094 10.1065 33.9036C9.40186 33.8978 8.7278 33.6283 8.22951 33.1532C7.73123 32.6781 7.44859 32.0353 7.44246 31.3635C7.43634 30.6916 7.70723 30.0443 8.19678 29.561L17.6998 20.5L8.19678 11.439C7.69295 10.9585 7.40991 10.3068 7.40991 9.62731C7.40991 8.94783 7.69295 8.29617 8.19678 7.81563Z" fill="#2D3047" />
</svg>