<svg width="35" height="40" viewBox="0 0 35 40" fill="none" xmlns="http://www.w3.org/2000/svg">
<path d="M21.7972 13.1633L25.2777 2.22222C25.2777 2.22222 24.8908 2.22444 24.3055 2.26V0H22.3611V2.46556C20.1531 2.80111 17.4999 3.60778 17.4999 5.55556C17.4999 3.60778 14.8468 2.80111 12.6388 2.46556V0H10.6944V2.26C10.1091 2.22444 9.72217 2.22222 9.72217 2.22222L13.2037 13.1633L0.972168 28.4922C0.972168 28.4922 6.8055 40 17.4999 40C28.1944 40 34.0277 28.4922 34.0277 28.4922L21.7972 13.1633Z" fill="#55ACEE"/>
<path d="M12.6389 12.2222H22.3611V14.4444H12.6389V12.2222Z" fill="#BBDDF5"/>
<path d="M14.5834 14.4445C14.5834 14.4445 8.03645 23.4511 9.6727 24.4511C11.3099 25.4522 14.5834 14.4445 14.5834 14.4445ZM20.5101 14.4445C20.5101 14.4445 27.057 23.45 25.4208 24.4522C23.7835 25.4522 20.5101 14.4445 20.5101 14.4445V14.4445ZM17.5001 14.4445C17.5001 14.4445 15.5556 26.6667 17.5001 26.6667C19.4445 26.6667 17.5001 14.4445 17.5001 14.4445Z" fill="#3B88C3"/>
</svg>
