<svg width="49" height="36" viewBox="0 0 49 36" fill="none" xmlns="http://www.w3.org/2000/svg">
<path d="M47.7693 11.5312C48.8878 12.1359 49.3858 13.507 48.658 14.5898C48.0681 15.6164 46.5741 16.0734 45.3943 15.4055L24.4481 4.82413L3.64282 15.4055C2.45914 16.0734 0.966703 15.6164 0.308974 14.5898C-0.348602 13.507 0.0778298 12.1359 1.26167 11.5312L23.3295 0.283131C24.065 -0.094377 24.969 -0.094377 25.7045 0.283131L47.7693 11.5312ZM21.3835 14.0625C21.3835 12.5086 22.8238 11.25 24.4481 11.25C26.2102 11.25 27.5126 12.5086 27.5126 14.0625C27.5126 15.6164 26.2102 16.875 24.4481 16.875C22.8238 16.875 21.3835 15.6164 21.3835 14.0625ZM7.89948 20.8125C7.89948 19.2586 9.33982 18 10.964 18C12.7261 18 14.0286 19.2586 14.0286 20.8125C14.0286 22.3664 12.7261 23.625 10.964 23.625C9.33982 23.625 7.89948 22.3664 7.89948 20.8125ZM40.9966 20.8125C40.9966 22.3664 39.6942 23.625 37.9321 23.625C36.3079 23.625 34.8675 22.3664 34.8675 20.8125C34.8675 19.2586 36.3079 18 37.9321 18C39.6942 18 40.9966 19.2586 40.9966 20.8125ZM17.3843 34.5516L15.2544 31.043V33.75C15.2544 34.9945 14.2278 36 12.8028 36H9.1253C7.83819 36 6.67366 34.9945 6.67366 33.75V31.043L4.684 34.5516C4.2021 35.3672 3.08737 35.6766 2.19329 35.2336C1.29921 34.7906 0.964404 33.7711 1.4463 32.9484L4.34767 28.0055C5.52369 26.0016 7.80755 24.75 10.2822 24.75H11.7838C13.0326 24.75 14.2278 25.0664 15.2621 25.6359L17.8286 21.2555C19.0085 19.2516 21.2916 17.9367 23.7662 17.9367H25.2678C27.7424 17.9367 30.0255 19.2516 31.2054 21.2555L33.7719 25.6359C34.8062 25.0664 36.0014 24.75 37.2502 24.75H38.7518C41.2265 24.75 43.5096 26.0016 44.6894 28.0055L47.5854 32.9484C48.0681 33.7711 47.731 34.7906 46.8423 35.2336C45.9459 35.6766 44.835 35.3672 44.3523 34.5516L42.2224 31.043V33.75C42.2224 34.9945 41.1958 36 39.7708 36H36.0933C34.8062 36 33.6417 34.9945 33.6417 33.75V31.043L31.6497 34.5516C31.1671 35.3672 30.0562 35.6766 29.1598 35.2336C28.2021 34.7906 27.934 33.7711 28.4166 32.9484L31.1977 28.2023C31.0675 28.0898 30.9526 27.9562 30.8683 27.8016L28.7384 24.293V28.125C28.7384 29.3695 27.7118 30.375 26.2868 30.375H22.6093C21.3222 30.375 20.1577 29.3695 20.1577 28.125V24.293L18.1657 27.8016C18.0125 27.9562 17.9665 28.0898 17.8363 28.2023L20.6174 32.9484C21.1 33.7711 20.7629 34.7906 19.8742 35.2336C18.9778 35.6766 17.8669 35.3672 17.3843 34.5516Z" fill="#2D3047"/>
</svg>
