<svg width="52" height="41" viewBox="0 0 52 41" fill="none" xmlns="http://www.w3.org/2000/svg">
<path d="M50.6939 13.1328C51.881 13.8215 52.4095 15.383 51.6371 16.6162C51.011 17.7853 49.4256 18.3058 48.1735 17.5451L25.9449 5.49414L3.86585 17.5451C2.6097 18.3058 1.02589 17.7853 0.32789 16.6162C-0.369945 15.383 0.0825949 13.8215 1.33891 13.1328L24.7578 0.322455C25.5384 -0.107485 26.4977 -0.107485 27.2783 0.322455L50.6939 13.1328ZM22.6927 16.0156C22.6927 14.2459 24.2212 12.8125 25.9449 12.8125C27.8149 12.8125 29.1971 14.2459 29.1971 16.0156C29.1971 17.7853 27.8149 19.2187 25.9449 19.2187C24.2212 19.2187 22.6927 17.7853 22.6927 16.0156ZM8.38312 23.7031C8.38312 21.9334 9.91165 20.5 11.6353 20.5C13.5053 20.5 14.8875 21.9334 14.8875 23.7031C14.8875 25.4728 13.5053 26.9062 11.6353 26.9062C9.91165 26.9062 8.38312 25.4728 8.38312 23.7031ZM43.5066 23.7031C43.5066 25.4728 42.1245 26.9062 40.2544 26.9062C38.5308 26.9062 37.0023 25.4728 37.0023 23.7031C37.0023 21.9334 38.5308 20.5 40.2544 20.5C42.1245 20.5 43.5066 21.9334 43.5066 23.7031ZM18.4486 39.3504L16.1883 35.3545V38.4375C16.1883 39.8549 15.0989 41 13.5866 41H9.68399C8.31808 41 7.08225 39.8549 7.08225 38.4375V35.3545L4.97078 39.3504C4.45937 40.2793 3.27639 40.6316 2.32757 40.1271C1.37875 39.6227 1.02345 38.4615 1.53485 37.5246L4.61385 31.8951C5.86187 29.6129 8.28556 28.1875 10.9117 28.1875H12.5053C13.8305 28.1875 15.0989 28.5478 16.1965 29.1965L18.9202 24.2076C20.1723 21.9254 22.5951 20.4279 25.2213 20.4279H26.8148C29.441 20.4279 31.8638 21.9254 33.1159 24.2076L35.8396 29.1965C36.9372 28.5478 38.2056 28.1875 39.5308 28.1875H41.1244C43.7505 28.1875 46.1734 29.6129 47.4255 31.8951L50.4988 37.5246C51.011 38.4615 50.6533 39.6227 49.7102 40.1271C48.7589 40.6316 47.58 40.2793 47.0678 39.3504L44.8075 35.3545V38.4375C44.8075 39.8549 43.718 41 42.2058 41H38.3031C36.9372 41 35.7014 39.8549 35.7014 38.4375V35.3545L33.5875 39.3504C33.0753 40.2793 31.8964 40.6316 30.9451 40.1271C29.9288 39.6227 29.6442 38.4615 30.1564 37.5246L33.1078 32.1193C32.9696 31.9912 32.8476 31.8391 32.7582 31.6629L30.4979 27.667V32.0312C30.4979 33.4486 29.4084 34.5937 27.8962 34.5937H23.9936C22.6277 34.5937 21.3918 33.4486 21.3918 32.0312V27.667L19.2779 31.6629C19.1153 31.8391 19.0665 31.9912 18.9283 32.1193L21.8797 37.5246C22.3919 38.4615 22.0341 39.6227 21.091 40.1271C20.1397 40.6316 18.9608 40.2793 18.4486 39.3504V39.3504Z" fill="#2D3047"/>
</svg>
