<svg width="20" height="20" viewBox="0 0 20 20" fill="none" xmlns="http://www.w3.org/2000/svg">
<g clip-path="url(#clip0_85_68)">
<path d="M9.99999 0.247498C7.62456 0.246374 5.3263 1.09089 3.51677 2.62981C1.70724 4.16873 0.504625 6.30155 0.12428 8.64634C-0.256066 10.9911 0.210701 13.3947 1.44099 15.4267C2.67129 17.4587 4.58476 18.9864 6.83874 19.7362C7.33874 19.8287 7.52249 19.5187 7.52249 19.255C7.52249 19.0162 7.51249 18.2287 7.50874 17.3937C4.72624 17.9987 4.13999 16.2137 4.13999 16.2137C3.68499 15.0575 3.02999 14.75 3.02999 14.75C2.12249 14.1287 3.09874 14.1425 3.09874 14.1425C4.10249 14.2125 4.63124 15.1725 4.63124 15.1725C5.52374 16.7012 6.97124 16.2587 7.54124 16.0037C7.63124 15.3575 7.88999 14.9162 8.17624 14.6662C5.95499 14.4137 3.61999 13.5562 3.61999 9.72375C3.61999 8.6325 4.01124 7.74 4.64999 7.04C4.54624 6.7875 4.20374 5.77125 4.74624 4.39375C4.74624 4.39375 5.58624 4.125 7.49749 5.41875C8.3132 5.19686 9.15465 5.0838 9.99999 5.0825C10.85 5.08625 11.7062 5.1975 12.505 5.41875C14.4137 4.125 15.2525 4.39375 15.2525 4.39375C15.7962 5.77125 15.455 6.78875 15.3512 7.04C15.9925 7.74 16.38 8.6325 16.38 9.72375C16.38 13.565 14.04 14.41 11.8137 14.6575C12.1725 14.9675 12.4925 15.5762 12.4925 16.5087C12.4925 17.8462 12.4812 18.9237 12.4812 19.2525C12.4812 19.5187 12.6612 19.83 13.1687 19.7325C15.4223 18.9818 17.3351 17.4535 18.5646 15.4212C19.7941 13.3888 20.26 10.9852 19.8789 8.64065C19.4979 6.29611 18.2947 4.16378 16.4848 2.62545C14.6749 1.08713 12.3766 0.24328 10.0012 0.244998L9.99999 0.247498Z" fill="#2D3047"/>
</g>
<defs>
<clipPath id="clip0_85_68">
<rect width="20" height="20" fill="white"/>
</clipPath>
</defs>
</svg>
