<svg width="19" height="20" viewBox="0 0 19 20" fill="none" xmlns="http://www.w3.org/2000/svg">
<path d="M9.5 0C6.92194 0 6.59775 0.0125 5.58481 0.06C4.57188 0.11 3.88194 0.2775 3.2775 0.525C2.64349 0.776024 2.06921 1.16978 1.59481 1.67875C1.11159 2.17837 0.737565 2.7828 0.49875 3.45C0.263625 4.085 0.103313 4.8125 0.057 5.875C0.011875 6.94375 0 7.28375 0 10.0013C0 12.7163 0.011875 13.0563 0.057 14.1225C0.1045 15.1875 0.263625 15.9137 0.49875 16.55C0.742187 17.2075 1.06638 17.765 1.59481 18.3212C2.12206 18.8775 2.65169 19.22 3.27631 19.475C3.88194 19.7225 4.57069 19.8912 5.58244 19.94C6.59656 19.9875 6.91956 20 9.5 20C12.0804 20 12.4023 19.9875 13.4164 19.94C14.4269 19.89 15.1193 19.7225 15.7237 19.475C16.3573 19.2239 16.9312 18.8301 17.4052 18.3212C17.9336 17.765 18.2578 17.2075 18.5012 16.55C18.7352 15.9137 18.8955 15.1875 18.943 14.1225C18.9881 13.0563 19 12.7163 19 10C19 7.28375 18.9881 6.94375 18.943 5.87625C18.8955 4.8125 18.7352 4.085 18.5012 3.45C18.2625 2.78278 17.8884 2.17834 17.4052 1.67875C16.9309 1.16959 16.3566 0.775807 15.7225 0.525C15.1169 0.2775 14.4257 0.10875 13.4152 0.06C12.4011 0.0125 12.0793 0 9.49763 0H9.50119H9.5ZM8.64856 1.8025H9.50119C12.0377 1.8025 12.3381 1.81125 13.3392 1.86C14.2654 1.90375 14.7689 2.0675 15.1038 2.20375C15.5467 2.385 15.8638 2.6025 16.1963 2.9525C16.5288 3.3025 16.7343 3.635 16.9064 4.1025C17.0371 4.45375 17.1914 4.98375 17.233 5.95875C17.2793 7.0125 17.2888 7.32875 17.2888 9.9975C17.2888 12.6663 17.2793 12.9837 17.233 14.0375C17.1914 15.0125 17.0359 15.5413 16.9064 15.8938C16.7541 16.3279 16.511 16.7205 16.1951 17.0425C15.8626 17.3925 15.5468 17.6088 15.1026 17.79C14.7701 17.9275 14.2666 18.09 13.3392 18.135C12.3381 18.1825 12.0377 18.1938 9.50119 18.1938C6.96469 18.1938 6.66306 18.1825 5.662 18.135C4.73575 18.09 4.23344 17.9275 3.89856 17.79C3.48591 17.6299 3.11259 17.3745 2.80606 17.0425C2.48989 16.72 2.24642 16.3271 2.09356 15.8925C1.96413 15.5412 1.80856 15.0113 1.767 14.0363C1.72188 12.9825 1.71238 12.6662 1.71238 9.995C1.71238 7.325 1.72188 7.01 1.767 5.95625C1.80975 4.98125 1.96413 4.45125 2.09475 4.09875C2.26694 3.6325 2.47356 3.29875 2.80606 2.94875C3.13856 2.59875 3.45444 2.3825 3.89856 2.20125C4.23344 2.06375 4.73575 1.90125 5.662 1.85625C6.53838 1.81375 6.878 1.80125 8.64856 1.8V1.8025V1.8025ZM14.5718 3.4625C14.4221 3.4625 14.2739 3.49354 14.1356 3.55384C13.9972 3.61415 13.8716 3.70254 13.7657 3.81397C13.6599 3.9254 13.5759 4.05769 13.5186 4.20328C13.4613 4.34887 13.4318 4.50491 13.4318 4.6625C13.4318 4.82009 13.4613 4.97613 13.5186 5.12172C13.5759 5.26731 13.6599 5.3996 13.7657 5.51103C13.8716 5.62246 13.9972 5.71085 14.1356 5.77116C14.2739 5.83146 14.4221 5.8625 14.5718 5.8625C14.8742 5.8625 15.1641 5.73607 15.3779 5.51103C15.5917 5.28598 15.7118 4.98076 15.7118 4.6625C15.7118 4.34424 15.5917 4.03902 15.3779 3.81397C15.1641 3.58893 14.8742 3.4625 14.5718 3.4625V3.4625ZM9.50119 4.865C8.85408 4.85437 8.21144 4.97936 7.61066 5.23268C7.00989 5.486 6.46299 5.86259 6.0018 6.34053C5.54062 6.81847 5.17437 7.38821 4.92437 8.01657C4.67438 8.64494 4.54563 9.31938 4.54563 10.0006C4.54563 10.6819 4.67438 11.3563 4.92437 11.9847C5.17437 12.613 5.54062 13.1828 6.0018 13.6607C6.46299 14.1387 7.00989 14.5153 7.61066 14.7686C8.21144 15.0219 8.85408 15.1469 9.50119 15.1363C10.782 15.1152 12.0035 14.5649 12.9022 13.6041C13.8008 12.6432 14.3045 11.349 14.3045 10.0006C14.3045 8.65228 13.8008 7.35802 12.9022 6.39719C12.0035 5.43636 10.782 4.88603 9.50119 4.865V4.865ZM9.50119 6.66625C10.3411 6.66625 11.1467 7.01748 11.7406 7.64268C12.3346 8.26788 12.6683 9.11583 12.6683 10C12.6683 10.8842 12.3346 11.7321 11.7406 12.3573C11.1467 12.9825 10.3411 13.3337 9.50119 13.3337C8.66123 13.3337 7.85568 12.9825 7.26174 12.3573C6.6678 11.7321 6.33413 10.8842 6.33413 10C6.33413 9.11583 6.6678 8.26788 7.26174 7.64268C7.85568 7.01748 8.66123 6.66625 9.50119 6.66625V6.66625Z" fill="#2D3047"/>
</svg>
