<svg width="20" height="20" viewBox="0 0 20 20" fill="none" xmlns="http://www.w3.org/2000/svg">
<g clip-path="url(#clip0_84_66)">
<path d="M17.0408 17.0411H14.0774V12.4002C14.0774 11.2936 14.0576 9.86899 12.5361 9.86899C10.9927 9.86899 10.7565 11.0748 10.7565 12.3197V17.0408H7.79326V7.49735H10.638V8.80157H10.6779C10.9626 8.31477 11.374 7.91431 11.8682 7.64283C12.3625 7.37135 12.9212 7.23902 13.4847 7.25993C16.4883 7.25993 17.042 9.23555 17.042 11.8057L17.0408 17.0411V17.0411ZM4.44951 6.1929C3.49974 6.19305 2.72966 5.42321 2.7295 4.47344C2.72935 3.52368 3.49911 2.7536 4.44888 2.75344C5.39865 2.75321 6.16872 3.52305 6.16888 4.47282C6.16896 4.92891 5.98786 5.36636 5.66542 5.68894C5.34298 6.01151 4.9056 6.19279 4.44951 6.1929V6.1929ZM5.93122 17.0412H2.96474V7.49735H5.93115V17.0411L5.93122 17.0412ZM18.5181 0.00133355H1.47568C0.670208 -0.00772895 0.00966065 0.637505 -0.000183105 1.44297V18.5565C0.00934815 19.3623 0.669817 20.0082 1.4756 19.9998H18.5181C19.3256 20.0098 19.9886 19.3639 19.9998 18.5565V1.44165C19.9883 0.634615 19.3252 -0.0105415 18.5181 5.42127e-06" fill="#0A66C2"/>
</g>
<defs>
<clipPath id="clip0_84_66">
<rect width="20" height="20" fill="white"/>
</clipPath>
</defs>
</svg>
