<svg width="45" height="40" viewBox="0 0 65 52" fill="none" xmlns="http://www.w3.org/2000/svg">
  <path d="M7.25776 49.7491C8.15981 50.5975 11.8753 49.118 14.808 47.9316C17.0055 47.0453 25.7996 43.9138 30.1708 42.2895C31.351 41.8515 33.0677 41.279 34.3036 39.8685C35.4003 38.6131 38.3092 33.2813 32.4518 27.8806C26.5069 22.397 20.3833 23.911 18.0944 25.3181C16.7472 26.1458 15.6505 28.0116 15.1577 28.96C13.0754 32.9675 10.107 40.3099 8.89894 43.1965C8.01278 45.3244 6.36365 48.9076 7.25776 49.7491Z" fill="#FFC107" />
  <path d="M14.3251 31C14.3828 31.5815 14.5273 32.5273 15.0224 34.3487C15.3607 35.5986 15.9136 36.9087 16.3633 37.7742C17.7125 40.3776 19.6063 41.427 21.5249 42.2692C24.7844 43.6996 27 43.967 27 43.967L24.3429 44.8459C24.3429 44.8459 22.7338 44.5752 20.5388 43.6996C18.4469 42.8641 16.2684 41.4504 14.6758 38.6833C13.9868 37.4835 13.5865 36.3205 13.3555 35.3981C13.0708 34.2551 13.0254 33.6068 13.0254 33.6068L14.3251 31ZM11.0615 37.7776C11.0615 37.7776 11.3915 39.9465 13.603 42.6836C16.1941 45.8853 19.8126 46.41 19.8126 46.41L17.4072 47.212C17.4072 47.212 14.7212 46.547 12.1672 43.723C10.5746 41.9618 10.129 39.8563 10.129 39.8563L11.0615 37.7776ZM8.77155 42.9176C8.77155 42.9176 9.37394 44.7891 10.6942 46.186C12.2662 47.8537 14.2673 48.3383 14.2673 48.3383L12.423 49C12.423 49 11.0243 48.7627 9.49359 47.192C8.33008 45.9989 8 44.6287 8 44.6287L8.77155 42.9176Z" fill="#FF8F00" />
  <path opacity="0.44" d="M8.05987 47.6649C7.97938 47.51 7.97938 47.3344 8.0639 47.1829L18.3138 29L20 34.4218L9.21485 47.7475C8.9251 48.1193 8.27316 48.0711 8.05987 47.6649Z" fill="#FFFDE7" />
  <path d="M20.7433 36.2857C25.3535 40.9257 30.6028 40.3457 32.35 39.1724C34.1011 37.9957 35.4842 33.9524 30.8934 29.389C26.0818 24.609 20.6348 25.9724 19.3758 27.0057C18.1167 28.039 16.5128 32.029 20.7433 36.2857Z" fill="url(#paint0_linear_19_64)" />
  <path d="M36.9373 38.5399C35.2764 37.2783 34.3924 37.5036 33.2061 37.9507C31.6753 38.526 29.2682 38.9523 26 37.9507L26.9835 35.8053C28.9238 36.3979 30.3282 36.1103 31.5414 35.4621C33.1027 34.6303 35.2382 33.49 38.5599 36.0167C39.9452 37.0703 41.365 37.7704 42.4059 37.4516C43.1637 37.2228 43.5655 36.2004 43.7683 35.3859C43.7875 35.3131 43.8181 35.1052 43.841 34.9215C44.0247 33.6495 44.3309 30.9044 46.5888 29.5007C49.0035 28 51.5408 28 51.5408 28L52 32.1314C50.8328 31.9754 50.0215 32.1903 49.3365 32.5334C46.7571 33.8332 49.0035 38.8241 44.9891 40.5016C41.1278 42.1271 37.9706 39.3232 36.9373 38.5399Z" fill="#03A9F4" />
  <path d="M22.4675 33L20.8771 31.6609C23.7978 28.5972 23.0282 26.346 22.4675 24.7074C22.3539 24.3769 22.2476 24.0637 22.178 23.7642C21.9288 22.704 21.8775 21.7814 21.9545 20.9759C20.8331 19.6644 20.3383 18.2909 20.3054 18.1979C19.6237 16.2599 20.1368 14.3701 21.3131 12.5972C23.6915 9 27.9975 9 27.9975 9L29.4341 12.611C28.342 12.5697 24.7616 12.6213 23.6622 14.2496C22.2733 16.3012 23.1858 17.568 23.2518 17.7126C23.5193 17.3855 23.7905 17.1239 24.0323 16.9208C25.7877 15.4578 27.3122 15.2478 28.2834 15.3305C29.3754 15.4234 30.3649 15.9398 31.0722 16.7866C31.8454 17.716 32.1642 18.9243 31.9187 20.0224C31.6805 21.0929 30.9219 21.9983 29.7822 22.5731C27.7923 23.5783 26.1359 23.4406 25.0255 23.0929C25.0328 23.117 25.0365 23.1446 25.0438 23.1687C25.0841 23.3408 25.1647 23.5818 25.26 23.8606C25.9086 25.747 27.1143 28.7418 22.4675 33ZM25.1611 20.0809C25.3736 20.2255 25.5972 20.346 25.828 20.432C26.5976 20.7212 27.4368 20.6248 28.3896 20.1429C28.9503 19.8606 29.0163 19.5577 29.0383 19.4578C29.1042 19.1583 28.9943 18.7762 28.7561 18.4905C28.5472 18.2392 28.3053 18.1084 28.0158 18.0809C27.4661 18.0361 26.7222 18.3632 25.9783 18.9862C25.6228 19.2857 25.3516 19.654 25.1611 20.0809Z" fill="#F44336" />
  <path d="M29.4216 34L27 33.9414C27 33.9414 28.1504 28.2 31.8745 27.2351C32.5725 27.0559 33.3368 26.8732 34.105 26.7733C34.5613 26.7113 35.2827 26.6182 35.6376 26.501C35.7194 25.96 35.4621 25.2708 35.1735 24.4885C34.9473 23.8819 34.7134 23.2582 34.5886 22.5758C34.3468 21.2456 34.7484 20.0704 35.7194 19.2606C36.9049 18.2784 38.8196 17.9648 40.98 18.399C42.2122 18.6471 43.1208 19.1813 43.9202 19.65C45.0628 20.322 45.7296 20.6632 47.1257 19.8326C48.8142 18.8263 46.6071 14.8873 45.4333 12.6128L49.8125 11C50.4013 12.1372 53.2441 17.9889 51.3684 21.3283C50.7367 22.4518 49.6487 23.1961 48.2215 23.4753C45.1174 24.0887 43.3002 23.0204 41.9744 22.2415C41.3465 21.8728 40.7967 21.5833 40.2001 21.4317C36.0548 20.3875 41.8418 25.7773 39.1316 28.2C37.5054 29.6509 33.5318 30.0334 33.2744 30.0886C30.7163 30.6331 29.4216 34 29.4216 34Z" fill="#F48FB1" />
  <path d="M22.0474 21C21.9853 21.7867 21.9559 22.2551 22.1423 23.2777C23.0414 24 25 24 25 24C24.915 23.7104 24.8398 23.4601 24.8071 23.2813C24.8005 23.2563 24.7973 23.2277 24.7907 23.2026C22.7995 22.1156 22.0474 21 22.0474 21Z" fill="#C92B27" />
  <path d="M16.8989 24L13 22.3789L14.9419 20L18 21.717L16.8989 24Z" fill="#FFC107" />
  <path d="M6.99951 14.0563C4.73076 13.7678 2.41904 11.9478 2.16553 11.7406L4.39561 9.26657C5.07021 9.80688 6.50107 10.7128 7.45928 10.8347L6.99951 14.0563Z" fill="#FB8C00" />
  <path d="M14.4254 15L11 14.1741C11.3921 13.2919 11.4958 12.34 11.293 11.4212L14.8536 11C15.1466 12.3333 14.9978 13.7164 14.4254 15Z" fill="#03A9F4" />
  <path d="M33 13.5688L36.1037 13L37 16.4312L33.8963 17L33 13.5688Z" fill="#FB8C00" />
  <path d="M40.9231 14L39 12.0872C40.007 11.1885 40.2378 10.0132 40.2378 10L43 10.4247C42.965 10.6321 42.6119 12.4955 40.9231 14Z" fill="#FFC107" />
  <path d="M42 24.6672L44.9818 24L46 26.3328L43.0182 27L42 24.6672Z" fill="#FB8C00" />
  <path d="M42.9654 47L39.9047 46.6331C40.0356 45.5285 39.2233 44.1741 39 43.8735L41.4639 42C41.6487 42.2459 43.2541 44.498 42.9654 47Z" fill="#F44336" />
  <path d="M51.548 43C50.4122 42.8422 49.2498 42.779 48.1026 42.8176L48 40.0118C49.3333 39.9697 50.6819 40.0399 52 40.2258L51.548 43Z" fill="#FB8C00" />
  <path d="M48 47.1354L50.1041 45L53 47.865L50.8959 50L48 47.1354Z" fill="#F48FB1" />
  <path d="M40.6673 29L43 31.6673L40.3327 34L38 31.3327L40.6673 29Z" fill="#F44336" />
  <defs>
    <linearGradient id="paint0_linear_19_64" x1="33.4247" y1="29.1687" x2="22.8725" y2="36.527" gradientUnits="userSpaceOnUse">
      <stop offset="0.024" stop-color="#8F4700" />
      <stop offset="1" stop-color="#703E2D" />
    </linearGradient>
  </defs>
</svg>