<svg width="36" height="35" viewBox="0 0 36 35" fill="none" xmlns="http://www.w3.org/2000/svg">
  <path d="M18 16.0416C19.2426 16.0416 20.25 15.0622 20.25 13.8541C20.25 12.646 19.2426 11.6666 18 11.6666C16.7574 11.6666 15.75 12.646 15.75 13.8541C15.75 15.0622 16.7574 16.0416 18 16.0416Z" fill="#F24E1E" />
  <path d="M18 2.91663C14.8381 2.91647 11.8039 4.12961 9.55686 6.29236C7.30985 8.45512 6.03162 11.3927 6 14.4666C6 22.4583 16.575 31.3541 17.025 31.7333C17.2967 31.9592 17.6425 32.0834 18 32.0834C18.3575 32.0834 18.7033 31.9592 18.975 31.7333C19.5 31.3541 30 22.4583 30 14.4666C29.9684 11.3927 28.6902 8.45512 26.4431 6.29236C24.1961 4.12961 21.1619 2.91647 18 2.91663ZM18 18.9583C16.9616 18.9583 15.9466 18.6589 15.0833 18.0981C14.2199 17.5372 13.547 16.7401 13.1496 15.8074C12.7523 14.8747 12.6483 13.8485 12.8509 12.8584C13.0534 11.8682 13.5535 10.9588 14.2877 10.2449C15.0219 9.53111 15.9574 9.04498 16.9758 8.84803C17.9942 8.65109 19.0498 8.75217 20.0091 9.13849C20.9684 9.52481 21.7883 10.179 22.3652 11.0184C22.9421 11.8578 23.25 12.8446 23.25 13.8541C23.25 15.2078 22.6969 16.5061 21.7123 17.4633C20.7277 18.4205 19.3924 18.9583 18 18.9583V18.9583Z" fill="#F24E1E" />
</svg>