<svg width="37" height="37" viewBox="0 0 37 37" fill="none" xmlns="http://www.w3.org/2000/svg">
<path d="M8.47908 28.5209H3.08325V7.70837L13.8749 3.08337H23.1249L33.9166 7.70837V28.5209H28.5207" stroke="#2D3047" stroke-width="4" stroke-linecap="round" stroke-linejoin="round"/>
<path d="M18.4998 13.875L13.8748 3.08337M28.5207 16.1875V33.9167H8.479V16.1875H28.5207ZM23.1248 3.08337L18.4998 13.875L23.1248 3.08337ZM18.4998 13.875L13.8748 3.08337L18.4998 13.875ZM18.4998 13.875V33.9167V13.875ZM23.1248 3.08337L18.4998 13.875L23.1248 3.08337Z" stroke="#2D3047" stroke-width="4" stroke-linecap="round" stroke-linejoin="round"/>
<path d="M23.1248 3.08337L26.979 9.25004L23.1248 13.4896L24.6665 17.7292L18.4998 28.5209M13.8748 3.08337L10.7915 9.25004L13.8748 13.4896L12.3332 17.7292L18.4998 28.5209L13.8748 3.08337Z" stroke="#2D3047" stroke-width="4" stroke-linecap="round" stroke-linejoin="round"/>
</svg>
