<svg width="30" height="30" viewBox="0 0 44 44" fill="none" xmlns="http://www.w3.org/2000/svg">
  <path d="M10.0834 33.9166H3.66675V9.16663L16.5001 3.66663H27.5001L40.3334 9.16663V33.9166H33.9167" stroke="#2D3047" stroke-width="4" stroke-linecap="round" stroke-linejoin="round" />
  <path d="M22.0002 16.5L16.5002 3.66663M33.9168 19.25V40.3333H10.0835V19.25H33.9168ZM27.5002 3.66663L22.0002 16.5L27.5002 3.66663ZM22.0002 16.5L16.5002 3.66663L22.0002 16.5ZM22.0002 16.5V40.3333V16.5ZM27.5002 3.66663L22.0002 16.5L27.5002 3.66663Z" stroke="#2D3047" stroke-width="4" stroke-linecap="round" stroke-linejoin="round" />
  <path d="M27.5002 3.66663L32.0835 11L27.5002 16.0416L29.3335 21.0833L22.0002 33.9166M16.5002 3.66663L12.8335 11L16.5002 16.0416L14.6668 21.0833L22.0002 33.9166L16.5002 3.66663Z" stroke="#2D3047" stroke-width="4" stroke-linecap="round" stroke-linejoin="round" />
</svg>